<mxfile host="app.diagrams.net" modified="2023-10-21T12:38:34.970Z" agent="Mozilla/5.0 (Windows NT 10.0; Win64; x64) AppleWebKit/537.36 (KHTML, like Gecko) Chrome/118.0.0.0 Safari/537.36" etag="1kiO---gwp1ssY4juz7L" version="22.0.6" type="device">
  <diagram name="Página-1" id="cOyWgmGHMXO5VJ9zmdlT">
    <mxGraphModel dx="1886" dy="576" grid="1" gridSize="10" guides="1" tooltips="1" connect="1" arrows="1" fold="1" page="1" pageScale="1" pageWidth="827" pageHeight="1169" math="0" shadow="0">
      <root>
        <mxCell id="0" />
        <mxCell id="1" parent="0" />
        <mxCell id="dx6zvSsTpxAph52ySE3O-1" value="&lt;font style=&quot;font-size: 20px;&quot;&gt;User&lt;/font&gt;" style="rounded=0;whiteSpace=wrap;html=1;" parent="1" vertex="1">
          <mxGeometry x="175" y="170" width="120" height="60" as="geometry" />
        </mxCell>
        <mxCell id="dx6zvSsTpxAph52ySE3O-2" value="&lt;span style=&quot;font-size: 20px;&quot;&gt;Match&lt;/span&gt;" style="rounded=0;whiteSpace=wrap;html=1;" parent="1" vertex="1">
          <mxGeometry x="525" y="170" width="120" height="60" as="geometry" />
        </mxCell>
        <mxCell id="dx6zvSsTpxAph52ySE3O-3" value="play" style="rhombus;whiteSpace=wrap;html=1;" parent="1" vertex="1">
          <mxGeometry x="365" y="160" width="80" height="80" as="geometry" />
        </mxCell>
        <mxCell id="dx6zvSsTpxAph52ySE3O-7" value="" style="endArrow=none;html=1;rounded=0;exitX=0;exitY=0.5;exitDx=0;exitDy=0;shape=link;entryX=1;entryY=0.5;entryDx=0;entryDy=0;" parent="1" source="dx6zvSsTpxAph52ySE3O-3" target="dx6zvSsTpxAph52ySE3O-1" edge="1">
          <mxGeometry width="50" height="50" relative="1" as="geometry">
            <mxPoint x="385" y="280" as="sourcePoint" />
            <mxPoint x="305" y="200" as="targetPoint" />
          </mxGeometry>
        </mxCell>
        <mxCell id="dx6zvSsTpxAph52ySE3O-15" value="1" style="edgeLabel;html=1;align=center;verticalAlign=middle;resizable=0;points=[];fontSize=20;" parent="dx6zvSsTpxAph52ySE3O-7" vertex="1" connectable="0">
          <mxGeometry x="0.058" y="3" relative="1" as="geometry">
            <mxPoint x="-18" y="-18" as="offset" />
          </mxGeometry>
        </mxCell>
        <mxCell id="dx6zvSsTpxAph52ySE3O-8" value="" style="endArrow=none;html=1;rounded=0;exitX=0;exitY=0.5;exitDx=0;exitDy=0;entryX=1;entryY=0.5;entryDx=0;entryDy=0;shape=link;" parent="1" source="dx6zvSsTpxAph52ySE3O-2" target="dx6zvSsTpxAph52ySE3O-3" edge="1">
          <mxGeometry width="50" height="50" relative="1" as="geometry">
            <mxPoint x="375" y="210" as="sourcePoint" />
            <mxPoint x="295" y="210" as="targetPoint" />
          </mxGeometry>
        </mxCell>
        <mxCell id="dx6zvSsTpxAph52ySE3O-13" value="N&lt;br style=&quot;font-size: 20px;&quot;&gt;" style="edgeLabel;html=1;align=center;verticalAlign=middle;resizable=0;points=[];fontSize=20;" parent="dx6zvSsTpxAph52ySE3O-8" vertex="1" connectable="0">
          <mxGeometry x="-0.15" relative="1" as="geometry">
            <mxPoint x="14" y="-15" as="offset" />
          </mxGeometry>
        </mxCell>
        <mxCell id="dx6zvSsTpxAph52ySE3O-11" value="number of games" style="ellipse;whiteSpace=wrap;html=1;dashed=1;" parent="1" vertex="1">
          <mxGeometry x="90" y="230" width="100" height="40" as="geometry" />
        </mxCell>
        <mxCell id="dx6zvSsTpxAph52ySE3O-12" value="" style="endArrow=none;html=1;rounded=0;" parent="1" source="dx6zvSsTpxAph52ySE3O-1" target="dx6zvSsTpxAph52ySE3O-11" edge="1">
          <mxGeometry width="50" height="50" relative="1" as="geometry">
            <mxPoint x="201.51999999999998" y="180" as="sourcePoint" />
            <mxPoint x="201.51999999999998" y="140" as="targetPoint" />
          </mxGeometry>
        </mxCell>
        <mxCell id="dx6zvSsTpxAph52ySE3O-22" value="-&gt; Obtain information about the system, such as the system authors and the system version, by an     unauthenticated user.&#xa;-&gt; Obtain statistical and ranking information, such as number of played games and users ranking, by an     unauthenticated user. (Check)&#xa;-&gt; Register a new user. (Check)&#xa;-&gt; Allow an user to express their desire to start a new game - users will enter a waiting lobby, where a     matchmaking algorithm will select pairs of users and start games with them.&#xa;-&gt; Allow an user to observe the game state. (Check)&#xa;-&gt; Allow an user to play a round. (Check)" style="text;whiteSpace=wrap;" parent="1" vertex="1">
          <mxGeometry x="60" y="600" width="560" height="150" as="geometry" />
        </mxCell>
        <mxCell id="dx6zvSsTpxAph52ySE3O-33" value="name" style="ellipse;whiteSpace=wrap;html=1;" parent="1" vertex="1">
          <mxGeometry x="310" y="240" width="70" height="30" as="geometry" />
        </mxCell>
        <mxCell id="dx6zvSsTpxAph52ySE3O-34" value="" style="endArrow=none;html=1;rounded=0;" parent="1" source="dx6zvSsTpxAph52ySE3O-1" target="dx6zvSsTpxAph52ySE3O-33" edge="1">
          <mxGeometry width="50" height="50" relative="1" as="geometry">
            <mxPoint x="351.52" y="310" as="sourcePoint" />
            <mxPoint x="401.52" y="260" as="targetPoint" />
          </mxGeometry>
        </mxCell>
        <mxCell id="dx6zvSsTpxAph52ySE3O-35" value="" style="endArrow=none;html=1;rounded=0;exitX=0.25;exitY=0;exitDx=0;exitDy=0;" parent="1" source="dx6zvSsTpxAph52ySE3O-1" target="dx6zvSsTpxAph52ySE3O-36" edge="1">
          <mxGeometry width="50" height="50" relative="1" as="geometry">
            <mxPoint x="351.52" y="310" as="sourcePoint" />
            <mxPoint x="131.51999999999998" y="140" as="targetPoint" />
          </mxGeometry>
        </mxCell>
        <mxCell id="dx6zvSsTpxAph52ySE3O-36" value="password" style="ellipse;whiteSpace=wrap;html=1;" parent="1" vertex="1">
          <mxGeometry x="105" y="130" width="70" height="30" as="geometry" />
        </mxCell>
        <mxCell id="dx6zvSsTpxAph52ySE3O-37" value="" style="endArrow=none;html=1;rounded=0;" parent="1" source="dx6zvSsTpxAph52ySE3O-1" target="dx6zvSsTpxAph52ySE3O-38" edge="1">
          <mxGeometry width="50" height="50" relative="1" as="geometry">
            <mxPoint x="171.51999999999998" y="240" as="sourcePoint" />
            <mxPoint x="268.00472256207945" y="137.7292532385702" as="targetPoint" />
          </mxGeometry>
        </mxCell>
        <mxCell id="dx6zvSsTpxAph52ySE3O-38" value="&lt;u&gt;id&lt;/u&gt;" style="ellipse;whiteSpace=wrap;html=1;" parent="1" vertex="1">
          <mxGeometry x="300" y="130" width="70" height="30" as="geometry" />
        </mxCell>
        <mxCell id="xWFfn3jdPb55RrBBfNBt-27" value="" style="endArrow=none;html=1;rounded=0;" parent="1" target="dx6zvSsTpxAph52ySE3O-2" edge="1">
          <mxGeometry width="50" height="50" relative="1" as="geometry">
            <mxPoint x="510.824226236361" y="157.05613097894593" as="sourcePoint" />
            <mxPoint x="575" y="260" as="targetPoint" />
          </mxGeometry>
        </mxCell>
        <mxCell id="YAuTm9VH2tMG_GHbXv0A-7" value="&lt;span style=&quot;font-size: 20px;&quot;&gt;Token&lt;/span&gt;" style="rounded=0;whiteSpace=wrap;html=1;" parent="1" vertex="1">
          <mxGeometry x="-160" y="170" width="120" height="60" as="geometry" />
        </mxCell>
        <mxCell id="YAuTm9VH2tMG_GHbXv0A-8" value="has" style="rhombus;whiteSpace=wrap;html=1;" parent="1" vertex="1">
          <mxGeometry x="30" y="160" width="80" height="80" as="geometry" />
        </mxCell>
        <mxCell id="YAuTm9VH2tMG_GHbXv0A-9" value="" style="endArrow=none;html=1;rounded=0;entryX=0;entryY=0.5;entryDx=0;entryDy=0;exitX=1;exitY=0.5;exitDx=0;exitDy=0;" parent="1" source="YAuTm9VH2tMG_GHbXv0A-8" target="dx6zvSsTpxAph52ySE3O-1" edge="1">
          <mxGeometry width="50" height="50" relative="1" as="geometry">
            <mxPoint x="235" y="300" as="sourcePoint" />
            <mxPoint x="290" y="280" as="targetPoint" />
          </mxGeometry>
        </mxCell>
        <mxCell id="YAuTm9VH2tMG_GHbXv0A-16" value="1" style="edgeLabel;html=1;align=center;verticalAlign=middle;resizable=0;points=[];fontSize=20;" parent="YAuTm9VH2tMG_GHbXv0A-9" vertex="1" connectable="0">
          <mxGeometry x="-0.4564" y="-1" relative="1" as="geometry">
            <mxPoint x="-3" y="-21" as="offset" />
          </mxGeometry>
        </mxCell>
        <mxCell id="YAuTm9VH2tMG_GHbXv0A-10" value="" style="endArrow=none;html=1;rounded=0;entryX=0;entryY=0.5;entryDx=0;entryDy=0;exitX=1;exitY=0.5;exitDx=0;exitDy=0;" parent="1" source="YAuTm9VH2tMG_GHbXv0A-7" target="YAuTm9VH2tMG_GHbXv0A-8" edge="1">
          <mxGeometry width="50" height="50" relative="1" as="geometry">
            <mxPoint x="244" y="305" as="sourcePoint" />
            <mxPoint x="245" y="240" as="targetPoint" />
          </mxGeometry>
        </mxCell>
        <mxCell id="YAuTm9VH2tMG_GHbXv0A-15" value="1" style="edgeLabel;html=1;align=center;verticalAlign=middle;resizable=0;points=[];fontSize=20;" parent="YAuTm9VH2tMG_GHbXv0A-10" vertex="1" connectable="0">
          <mxGeometry x="0.019" relative="1" as="geometry">
            <mxPoint x="14" y="-20" as="offset" />
          </mxGeometry>
        </mxCell>
        <mxCell id="YAuTm9VH2tMG_GHbXv0A-12" value="" style="endArrow=none;html=1;rounded=0;" parent="1" source="YAuTm9VH2tMG_GHbXv0A-7" target="YAuTm9VH2tMG_GHbXv0A-13" edge="1">
          <mxGeometry width="50" height="50" relative="1" as="geometry">
            <mxPoint x="100" y="300" as="sourcePoint" />
            <mxPoint x="-90" y="120" as="targetPoint" />
          </mxGeometry>
        </mxCell>
        <mxCell id="YAuTm9VH2tMG_GHbXv0A-13" value="create date" style="ellipse;whiteSpace=wrap;html=1;" parent="1" vertex="1">
          <mxGeometry x="-135" y="110" width="70" height="30" as="geometry" />
        </mxCell>
        <mxCell id="YAuTm9VH2tMG_GHbXv0A-18" value="value" style="ellipse;whiteSpace=wrap;html=1;" parent="1" vertex="1">
          <mxGeometry x="-260" y="185" width="70" height="30" as="geometry" />
        </mxCell>
        <mxCell id="YAuTm9VH2tMG_GHbXv0A-20" value="" style="endArrow=none;html=1;rounded=0;" parent="1" source="YAuTm9VH2tMG_GHbXv0A-18" target="YAuTm9VH2tMG_GHbXv0A-7" edge="1">
          <mxGeometry width="50" height="50" relative="1" as="geometry">
            <mxPoint x="-190" y="150" as="sourcePoint" />
            <mxPoint x="-90" y="130" as="targetPoint" />
          </mxGeometry>
        </mxCell>
        <mxCell id="eDnlF8v6GDu-VwRYmpLu-1" value="" style="endArrow=none;html=1;rounded=0;exitX=0.5;exitY=1;exitDx=0;exitDy=0;entryX=0.5;entryY=0;entryDx=0;entryDy=0;" parent="1" source="dx6zvSsTpxAph52ySE3O-1" target="eDnlF8v6GDu-VwRYmpLu-2" edge="1">
          <mxGeometry width="50" height="50" relative="1" as="geometry">
            <mxPoint x="270" y="300" as="sourcePoint" />
            <mxPoint x="235" y="300" as="targetPoint" />
          </mxGeometry>
        </mxCell>
        <mxCell id="eDnlF8v6GDu-VwRYmpLu-9" value="&lt;font style=&quot;font-size: 20px;&quot;&gt;N&lt;/font&gt;" style="edgeLabel;html=1;align=center;verticalAlign=middle;resizable=0;points=[];" parent="eDnlF8v6GDu-VwRYmpLu-1" vertex="1" connectable="0">
          <mxGeometry x="0.4182" y="-1" relative="1" as="geometry">
            <mxPoint x="16" y="-1" as="offset" />
          </mxGeometry>
        </mxCell>
        <mxCell id="eDnlF8v6GDu-VwRYmpLu-2" value="has" style="rhombus;whiteSpace=wrap;html=1;" parent="1" vertex="1">
          <mxGeometry x="195" y="295" width="80" height="80" as="geometry" />
        </mxCell>
        <mxCell id="eDnlF8v6GDu-VwRYmpLu-4" value="&lt;font style=&quot;font-size: 20px;&quot;&gt;Rank&lt;/font&gt;" style="rounded=0;whiteSpace=wrap;html=1;" parent="1" vertex="1">
          <mxGeometry x="175" y="440" width="120" height="60" as="geometry" />
        </mxCell>
        <mxCell id="eDnlF8v6GDu-VwRYmpLu-5" value="" style="endArrow=none;html=1;rounded=0;entryX=0.5;entryY=1;entryDx=0;entryDy=0;exitX=0.5;exitY=0;exitDx=0;exitDy=0;" parent="1" source="eDnlF8v6GDu-VwRYmpLu-4" target="eDnlF8v6GDu-VwRYmpLu-2" edge="1">
          <mxGeometry width="50" height="50" relative="1" as="geometry">
            <mxPoint x="120" y="420" as="sourcePoint" />
            <mxPoint x="170" y="370" as="targetPoint" />
          </mxGeometry>
        </mxCell>
        <mxCell id="eDnlF8v6GDu-VwRYmpLu-8" value="1" style="edgeLabel;html=1;align=center;verticalAlign=middle;resizable=0;points=[];fontSize=20;" parent="eDnlF8v6GDu-VwRYmpLu-5" vertex="1" connectable="0">
          <mxGeometry x="-0.1646" relative="1" as="geometry">
            <mxPoint x="15" y="-23" as="offset" />
          </mxGeometry>
        </mxCell>
        <mxCell id="eDnlF8v6GDu-VwRYmpLu-10" value="" style="endArrow=none;html=1;rounded=0;entryX=0;entryY=0.5;entryDx=0;entryDy=0;exitX=1;exitY=0.5;exitDx=0;exitDy=0;" parent="1" source="eDnlF8v6GDu-VwRYmpLu-11" target="eDnlF8v6GDu-VwRYmpLu-4" edge="1">
          <mxGeometry width="50" height="50" relative="1" as="geometry">
            <mxPoint x="130" y="470" as="sourcePoint" />
            <mxPoint x="180" y="300" as="targetPoint" />
          </mxGeometry>
        </mxCell>
        <mxCell id="eDnlF8v6GDu-VwRYmpLu-11" value="name" style="ellipse;whiteSpace=wrap;html=1;fontStyle=4" parent="1" vertex="1">
          <mxGeometry x="70" y="455" width="70" height="30" as="geometry" />
        </mxCell>
        <mxCell id="eDnlF8v6GDu-VwRYmpLu-14" value="Icon url" style="ellipse;whiteSpace=wrap;html=1;" parent="1" vertex="1">
          <mxGeometry x="200" y="530" width="70" height="30" as="geometry" />
        </mxCell>
        <mxCell id="eDnlF8v6GDu-VwRYmpLu-15" value="" style="endArrow=none;html=1;rounded=0;" parent="1" source="eDnlF8v6GDu-VwRYmpLu-14" target="eDnlF8v6GDu-VwRYmpLu-4" edge="1">
          <mxGeometry width="50" height="50" relative="1" as="geometry">
            <mxPoint x="196" y="541" as="sourcePoint" />
            <mxPoint x="221" y="510" as="targetPoint" />
          </mxGeometry>
        </mxCell>
        <mxCell id="eDnlF8v6GDu-VwRYmpLu-16" value="min. mmr" style="ellipse;whiteSpace=wrap;html=1;" parent="1" vertex="1">
          <mxGeometry x="330" y="455" width="70" height="30" as="geometry" />
        </mxCell>
        <mxCell id="eDnlF8v6GDu-VwRYmpLu-17" value="" style="endArrow=none;html=1;rounded=0;" parent="1" source="eDnlF8v6GDu-VwRYmpLu-16" target="eDnlF8v6GDu-VwRYmpLu-4" edge="1">
          <mxGeometry width="50" height="50" relative="1" as="geometry">
            <mxPoint x="196" y="541" as="sourcePoint" />
            <mxPoint x="221" y="510" as="targetPoint" />
          </mxGeometry>
        </mxCell>
        <mxCell id="eDnlF8v6GDu-VwRYmpLu-18" value="email" style="ellipse;whiteSpace=wrap;html=1;" parent="1" vertex="1">
          <mxGeometry x="140" y="100" width="70" height="30" as="geometry" />
        </mxCell>
        <mxCell id="eDnlF8v6GDu-VwRYmpLu-19" value="" style="endArrow=none;html=1;rounded=0;" parent="1" source="dx6zvSsTpxAph52ySE3O-1" target="eDnlF8v6GDu-VwRYmpLu-18" edge="1">
          <mxGeometry width="50" height="50" relative="1" as="geometry">
            <mxPoint x="277" y="240" as="sourcePoint" />
            <mxPoint x="299" y="261" as="targetPoint" />
          </mxGeometry>
        </mxCell>
        <mxCell id="eDnlF8v6GDu-VwRYmpLu-20" value="" style="endArrow=none;html=1;rounded=0;" parent="1" source="dx6zvSsTpxAph52ySE3O-1" target="eDnlF8v6GDu-VwRYmpLu-21" edge="1">
          <mxGeometry width="50" height="50" relative="1" as="geometry">
            <mxPoint x="260" y="240" as="sourcePoint" />
            <mxPoint x="350" y="250" as="targetPoint" />
          </mxGeometry>
        </mxCell>
        <mxCell id="eDnlF8v6GDu-VwRYmpLu-21" value="role" style="ellipse;whiteSpace=wrap;html=1;" parent="1" vertex="1">
          <mxGeometry x="260" y="100" width="70" height="30" as="geometry" />
        </mxCell>
        <mxCell id="eDnlF8v6GDu-VwRYmpLu-22" value="" style="endArrow=none;html=1;rounded=0;" parent="1" source="eDnlF8v6GDu-VwRYmpLu-23" target="dx6zvSsTpxAph52ySE3O-1" edge="1">
          <mxGeometry width="50" height="50" relative="1" as="geometry">
            <mxPoint x="310" y="250" as="sourcePoint" />
            <mxPoint x="176" y="165" as="targetPoint" />
          </mxGeometry>
        </mxCell>
        <mxCell id="eDnlF8v6GDu-VwRYmpLu-23" value="create date" style="ellipse;whiteSpace=wrap;html=1;" parent="1" vertex="1">
          <mxGeometry x="270" y="270" width="70" height="30" as="geometry" />
        </mxCell>
        <mxCell id="eDnlF8v6GDu-VwRYmpLu-24" value="avatar url" style="ellipse;whiteSpace=wrap;html=1;" parent="1" vertex="1">
          <mxGeometry x="140" y="270" width="70" height="30" as="geometry" />
        </mxCell>
        <mxCell id="eDnlF8v6GDu-VwRYmpLu-25" value="" style="endArrow=none;html=1;rounded=0;" parent="1" source="eDnlF8v6GDu-VwRYmpLu-24" target="dx6zvSsTpxAph52ySE3O-1" edge="1">
          <mxGeometry width="50" height="50" relative="1" as="geometry">
            <mxPoint x="323" y="253" as="sourcePoint" />
            <mxPoint x="300" y="240" as="targetPoint" />
          </mxGeometry>
        </mxCell>
        <mxCell id="eDnlF8v6GDu-VwRYmpLu-26" value="last date" style="ellipse;whiteSpace=wrap;html=1;" parent="1" vertex="1">
          <mxGeometry x="-135" y="280" width="70" height="30" as="geometry" />
        </mxCell>
        <mxCell id="eDnlF8v6GDu-VwRYmpLu-27" value="" style="endArrow=none;html=1;rounded=0;exitX=0.5;exitY=1;exitDx=0;exitDy=0;entryX=0.5;entryY=0;entryDx=0;entryDy=0;" parent="1" source="YAuTm9VH2tMG_GHbXv0A-7" target="eDnlF8v6GDu-VwRYmpLu-26" edge="1">
          <mxGeometry width="50" height="50" relative="1" as="geometry">
            <mxPoint x="-90" y="180" as="sourcePoint" />
            <mxPoint x="-90" y="150" as="targetPoint" />
          </mxGeometry>
        </mxCell>
        <mxCell id="eDnlF8v6GDu-VwRYmpLu-28" value="" style="endArrow=none;html=1;rounded=0;" parent="1" source="dx6zvSsTpxAph52ySE3O-2" target="eDnlF8v6GDu-VwRYmpLu-29" edge="1">
          <mxGeometry width="50" height="50" relative="1" as="geometry">
            <mxPoint x="529" y="168" as="sourcePoint" />
            <mxPoint x="570" y="130" as="targetPoint" />
          </mxGeometry>
        </mxCell>
        <mxCell id="eDnlF8v6GDu-VwRYmpLu-29" value="isPrivate" style="ellipse;whiteSpace=wrap;html=1;fontStyle=0" parent="1" vertex="1">
          <mxGeometry x="500" y="100" width="70" height="30" as="geometry" />
        </mxCell>
        <mxCell id="eDnlF8v6GDu-VwRYmpLu-30" value="create date" style="ellipse;whiteSpace=wrap;html=1;fontStyle=0" parent="1" vertex="1">
          <mxGeometry x="650" y="130" width="70" height="30" as="geometry" />
        </mxCell>
        <mxCell id="eDnlF8v6GDu-VwRYmpLu-31" value="" style="endArrow=none;html=1;rounded=0;" parent="1" source="dx6zvSsTpxAph52ySE3O-2" target="eDnlF8v6GDu-VwRYmpLu-30" edge="1">
          <mxGeometry width="50" height="50" relative="1" as="geometry">
            <mxPoint x="577" y="180" as="sourcePoint" />
            <mxPoint x="554" y="140" as="targetPoint" />
          </mxGeometry>
        </mxCell>
        <mxCell id="eDnlF8v6GDu-VwRYmpLu-32" value="state" style="ellipse;whiteSpace=wrap;html=1;fontStyle=0" parent="1" vertex="1">
          <mxGeometry x="600" y="100" width="70" height="30" as="geometry" />
        </mxCell>
        <mxCell id="eDnlF8v6GDu-VwRYmpLu-33" value="" style="endArrow=none;html=1;rounded=0;" parent="1" source="eDnlF8v6GDu-VwRYmpLu-32" target="dx6zvSsTpxAph52ySE3O-2" edge="1">
          <mxGeometry width="50" height="50" relative="1" as="geometry">
            <mxPoint x="595" y="110" as="sourcePoint" />
            <mxPoint x="595" y="180" as="targetPoint" />
          </mxGeometry>
        </mxCell>
        <mxCell id="eDnlF8v6GDu-VwRYmpLu-48" value="id" style="ellipse;whiteSpace=wrap;html=1;fontStyle=4" parent="1" vertex="1">
          <mxGeometry x="455" y="130" width="70" height="30" as="geometry" />
        </mxCell>
        <mxCell id="7NCyY2Ha6fcEj00MWckL-2" value="" style="endArrow=none;html=1;rounded=0;exitX=0.5;exitY=1;exitDx=0;exitDy=0;entryX=0.5;entryY=0;entryDx=0;entryDy=0;" parent="1" source="dx6zvSsTpxAph52ySE3O-2" target="7NCyY2Ha6fcEj00MWckL-4" edge="1">
          <mxGeometry width="50" height="50" relative="1" as="geometry">
            <mxPoint x="375" y="210" as="sourcePoint" />
            <mxPoint x="585" y="290" as="targetPoint" />
          </mxGeometry>
        </mxCell>
        <mxCell id="7NCyY2Ha6fcEj00MWckL-3" value="1" style="edgeLabel;html=1;align=center;verticalAlign=middle;resizable=0;points=[];fontSize=20;" parent="7NCyY2Ha6fcEj00MWckL-2" vertex="1" connectable="0">
          <mxGeometry x="0.058" y="3" relative="1" as="geometry">
            <mxPoint x="-18" y="18" as="offset" />
          </mxGeometry>
        </mxCell>
        <mxCell id="7NCyY2Ha6fcEj00MWckL-4" value="has" style="rhombus;whiteSpace=wrap;html=1;" parent="1" vertex="1">
          <mxGeometry x="545" y="295" width="80" height="80" as="geometry" />
        </mxCell>
        <mxCell id="7NCyY2Ha6fcEj00MWckL-6" value="" style="endArrow=none;html=1;rounded=0;exitX=0.5;exitY=1;exitDx=0;exitDy=0;entryX=0.5;entryY=0;entryDx=0;entryDy=0;" parent="1" source="7NCyY2Ha6fcEj00MWckL-4" target="7NCyY2Ha6fcEj00MWckL-8" edge="1">
          <mxGeometry width="50" height="50" relative="1" as="geometry">
            <mxPoint x="245" y="240" as="sourcePoint" />
            <mxPoint x="585" y="450" as="targetPoint" />
          </mxGeometry>
        </mxCell>
        <mxCell id="7NCyY2Ha6fcEj00MWckL-7" value="&lt;font style=&quot;font-size: 20px;&quot;&gt;1&lt;/font&gt;" style="edgeLabel;html=1;align=center;verticalAlign=middle;resizable=0;points=[];" parent="7NCyY2Ha6fcEj00MWckL-6" vertex="1" connectable="0">
          <mxGeometry x="0.4182" y="-1" relative="1" as="geometry">
            <mxPoint x="-14" y="-39" as="offset" />
          </mxGeometry>
        </mxCell>
        <mxCell id="7NCyY2Ha6fcEj00MWckL-8" value="&lt;span style=&quot;font-size: 20px;&quot;&gt;Board&lt;br&gt;&lt;/span&gt;" style="rounded=0;whiteSpace=wrap;html=1;" parent="1" vertex="1">
          <mxGeometry x="525" y="440" width="120" height="60" as="geometry" />
        </mxCell>
        <mxCell id="7NCyY2Ha6fcEj00MWckL-9" value="size" style="ellipse;whiteSpace=wrap;html=1;" parent="1" vertex="1">
          <mxGeometry x="420" y="455" width="70" height="30" as="geometry" />
        </mxCell>
        <mxCell id="7NCyY2Ha6fcEj00MWckL-10" value="" style="endArrow=none;html=1;rounded=0;exitX=0;exitY=0.5;exitDx=0;exitDy=0;" parent="1" source="7NCyY2Ha6fcEj00MWckL-8" target="7NCyY2Ha6fcEj00MWckL-9" edge="1">
          <mxGeometry width="50" height="50" relative="1" as="geometry">
            <mxPoint x="340" y="480" as="sourcePoint" />
            <mxPoint x="490" y="470" as="targetPoint" />
          </mxGeometry>
        </mxCell>
        <mxCell id="7NCyY2Ha6fcEj00MWckL-13" value="variant" style="ellipse;whiteSpace=wrap;html=1;" parent="1" vertex="1">
          <mxGeometry x="550" y="70" width="70" height="30" as="geometry" />
        </mxCell>
        <mxCell id="7NCyY2Ha6fcEj00MWckL-14" value="" style="endArrow=none;html=1;rounded=0;" parent="1" source="7NCyY2Ha6fcEj00MWckL-13" target="dx6zvSsTpxAph52ySE3O-2" edge="1">
          <mxGeometry width="50" height="50" relative="1" as="geometry">
            <mxPoint x="680" y="205" as="sourcePoint" />
            <mxPoint x="506.7405932953084" y="531.8270741282822" as="targetPoint" />
          </mxGeometry>
        </mxCell>
        <mxCell id="7NCyY2Ha6fcEj00MWckL-15" value="serialized stones" style="ellipse;whiteSpace=wrap;html=1;" parent="1" vertex="1">
          <mxGeometry x="490" y="530" width="80" height="40" as="geometry" />
        </mxCell>
        <mxCell id="7NCyY2Ha6fcEj00MWckL-16" value="" style="endArrow=none;html=1;rounded=0;exitX=0.5;exitY=0;exitDx=0;exitDy=0;" parent="1" source="7NCyY2Ha6fcEj00MWckL-15" target="7NCyY2Ha6fcEj00MWckL-8" edge="1">
          <mxGeometry width="50" height="50" relative="1" as="geometry">
            <mxPoint x="535" y="480" as="sourcePoint" />
            <mxPoint x="500" y="480" as="targetPoint" />
          </mxGeometry>
        </mxCell>
        <mxCell id="7NCyY2Ha6fcEj00MWckL-17" value="" style="endArrow=none;html=1;rounded=0;entryX=1;entryY=0.5;entryDx=0;entryDy=0;" parent="1" source="7NCyY2Ha6fcEj00MWckL-18" target="7NCyY2Ha6fcEj00MWckL-8" edge="1">
          <mxGeometry width="50" height="50" relative="1" as="geometry">
            <mxPoint x="690" y="470" as="sourcePoint" />
            <mxPoint x="595" y="510" as="targetPoint" />
          </mxGeometry>
        </mxCell>
        <mxCell id="7NCyY2Ha6fcEj00MWckL-18" value="turn" style="ellipse;whiteSpace=wrap;html=1;" parent="1" vertex="1">
          <mxGeometry x="680" y="455" width="70" height="30" as="geometry" />
        </mxCell>
        <mxCell id="1DUgk9NqWdRX0vmRShoH-4" value="type" style="ellipse;whiteSpace=wrap;html=1;" vertex="1" parent="1">
          <mxGeometry x="600" y="540" width="70" height="30" as="geometry" />
        </mxCell>
        <mxCell id="1DUgk9NqWdRX0vmRShoH-5" value="" style="endArrow=none;html=1;rounded=0;" edge="1" parent="1" source="1DUgk9NqWdRX0vmRShoH-4" target="7NCyY2Ha6fcEj00MWckL-8">
          <mxGeometry width="50" height="50" relative="1" as="geometry">
            <mxPoint x="540" y="540" as="sourcePoint" />
            <mxPoint x="568" y="510" as="targetPoint" />
          </mxGeometry>
        </mxCell>
      </root>
    </mxGraphModel>
  </diagram>
</mxfile>
